<?xml version="1.0" encoding="UTF-8"?>
<svg xmlns="http://www.w3.org/2000/svg" id="Layer_1" data-name="Layer 1" viewBox="0 0 24 24">
  <path d="m19,15.49c0,.097,0,5.51,0,5.51,0,.553-.447,1-1,1s-1-.447-1-1v-3.621l-3.534,1.352c-.469.18-.972.269-1.475.269-.506,0-1.011-.09-1.482-.271l-4.346-1.67c-.719-.277-1.165-.878-1.164-1.568,0-.691.449-1.291,1.169-1.566l4.347-1.658h0c.932-.356,2.003-.357,2.936-.003l4.375,1.66c.71.268,1.171.883,1.172,1.565Zm5-10.49v2H0v-2C0,2.243,2.243,0,5,0h14c2.757,0,5,2.243,5,5ZM6,3.5c0-.828-.672-1.5-1.5-1.5s-1.5.672-1.5,1.5.672,1.5,1.5,1.5,1.5-.672,1.5-1.5Zm4,0c0-.828-.672-1.5-1.5-1.5s-1.5.672-1.5,1.5.672,1.5,1.5,1.5,1.5-.672,1.5-1.5Zm1.986,17.5c-.761,0-1.5-.135-2.199-.4l-1.787-.682v1.276c0,.974.57,1.866,1.454,2.273.769.354,1.625.533,2.546.533s1.777-.18,2.548-.533c.882-.407,1.452-1.3,1.452-2.273v-1.284l-1.823.692c-.692.264-1.43.398-2.191.398ZM0,17c0,2.757,2.243,5,5,5h1.082c-.049-.264-.082-.532-.082-.807v-2.055l-.554-.213c-1.488-.572-2.448-1.921-2.446-3.438s.966-2.863,2.456-3.431l4.347-1.658c1.385-.527,2.973-.529,4.359-.004l4.376,1.661c1.356.511,2.484,1.944,2.484,3.431,0,.106-.022,5.513-.022,5.513,0,.208-.022.412-.063.609,1.797-.759,3.063-2.538,3.063-4.609v-8H0v8Z"/>
</svg>
